# xmcd
# Copyright (C) 1995-1998 Ti Kan
#
# Track frame offsets:
#       150
#       14284
#       32597
#
# Disc length: 623 seconds
#
# Revision: 0
# Processed by: cddbd v1.4PL0 Copyright (c) Steve Scherf et al.
# Submitted via: CD-Transfer v1.0
#
DISCID=17026d03
DTITLE=Alphorny - Nur Es Lächle
DYEAR=1999
DGENRE=
TTITLE0=Nur Es Lächle
TTITLE1=Wohäre
TTITLE2=Vm-Medley
EXTD=
EXTT0=
EXTT1=
EXTT2=
PLAYORDER=
